<svg xmlns="http://www.w3.org/2000/svg" width="1920" height="1080"><path d="M37,-259L394,-247L696,-259Z" fill="#ddf2d8" stroke="#ddf2d8" stroke-width="1.51"/><path d="M1033,-233L1192,-219L1477,-231Z" fill="#a1d4a5" stroke="#a1d4a5" stroke-width="1.51"/><path d="M1033,-233L1477,-231L1586,-240Z" fill="#9bcda0" stroke="#9bcda0" stroke-width="1.51"/><path d="M856,-246L1033,-233L1586,-240Z" fill="#a7d7a9" stroke="#a7d7a9" stroke-width="1.51"/><path d="M696,-259L856,-246L1586,-240Z" fill="#afdcaf" stroke="#afdcaf" stroke-width="1.51"/><path d="M696,-259L1586,-240L1986,-254Z" fill="#98cb9e" stroke="#98cb9e" stroke-width="1.51"/><path d="M1586,-240L1807,-235L1986,-254Z" fill="#89b78d" stroke="#89b78d" stroke-width="1.51"/><path d="M2070,855L1958,1004L2084,1037Z" fill="#116e32" stroke="#116e32" stroke-width="1.51"/><path d="M2070,855L2084,1037L2094,715Z" fill="#197236" stroke="#197236" stroke-width="1.51"/><path d="M1909,1141L1922,1238L2098,1104Z" fill="#006528" stroke="#006528" stroke-width="1.51"/><path d="M2094,715L2084,1037L2098,1104Z" fill="#116b31" stroke="#116b31" stroke-width="1.51"/><path d="M1935,690L2094,715L2098,492Z" fill="#348545" stroke="#348545" stroke-width="1.51"/><path d="M1889,585L1935,690L2098,492Z" fill="#3a8c49" stroke="#3a8c49" stroke-width="1.51"/><path d="M1822,1290L1532,1308L2113,1315Z" fill="#026027" stroke="#026027" stroke-width="1.51"/><path d="M1532,1308L1288,1328L2113,1315Z" fill="#0d672e" stroke="#0d672e" stroke-width="1.51"/><path d="M1922,1238L1822,1290L2113,1315Z" fill="#005a24" stroke="#005a24" stroke-width="1.51"/><path d="M2098,1104L1922,1238L2113,1315Z" fill="#005a24" stroke="#005a24" stroke-width="1.51"/><path d="M2094,715L2098,1104L2113,1315Z" fill="#0a642c" stroke="#0a642c" stroke-width="1.51"/><path d="M1969,-87L2050,-32L2113,-190Z" fill="#79a27c" stroke="#79a27c" stroke-width="1.51"/><path d="M2050,-32L2093,105L2113,-190Z" fill="#749d77" stroke="#749d77" stroke-width="1.51"/><path d="M1937,290L2047,414L2124,213Z" fill="#59965e" stroke="#59965e" stroke-width="1.51"/><path d="M2093,105L1962,116L2124,213Z" fill="#679a6b" stroke="#679a6b" stroke-width="1.51"/><path d="M1962,116L1937,290L2124,213Z" fill="#649b67" stroke="#649b67" stroke-width="1.51"/><path d="M2047,414L2098,492L2124,213Z" fill="#518e56" stroke="#518e56" stroke-width="1.51"/><path d="M2094,715L2113,1315L2124,213Z" fill="#22793c" stroke="#22793c" stroke-width="1.51"/><path d="M2098,492L2094,715L2124,213Z" fill="#45884d" stroke="#45884d" stroke-width="1.51"/><path d="M2113,-190L2093,105L2124,213Z" fill="#6d9970" stroke="#6d9970" stroke-width="1.51"/><path d="M1986,-254L1969,-87L2113,-190Z" fill="#7da481" stroke="#7da481" stroke-width="1.51"/><path d="M2050,-32L1962,116L2093,105Z" fill="#6e9e71" stroke="#6e9e71" stroke-width="1.51"/><path d="M1935,690L2070,855L2094,715Z" fill="#227e3e" stroke="#227e3e" stroke-width="1.51"/><path d="M2084,1037L1958,1004L2098,1104Z" fill="#09682d" stroke="#09682d" stroke-width="1.51"/><path d="M1958,1004L1909,1141L2098,1104Z" fill="#06692d" stroke="#06692d" stroke-width="1.51"/><path d="M2047,414L1941,434L2098,492Z" fill="#4a9052" stroke="#4a9052" stroke-width="1.51"/><path d="M1941,434L1889,585L2098,492Z" fill="#45914f" stroke="#45914f" stroke-width="1.51"/><path d="M1935,690L1895,847L2070,855Z" fill="#20803e" stroke="#20803e" stroke-width="1.51"/><path d="M1895,847L1958,1004L2070,855Z" fill="#177738" stroke="#177738" stroke-width="1.51"/><path d="M1937,290L1941,434L2047,414Z" fill="#53975a" stroke="#53975a" stroke-width="1.51"/><path d="M1969,-87L1962,116L2050,-32Z" fill="#75a377" stroke="#75a377" stroke-width="1.51"/><path d="M1603,1275L1532,1308L1822,1290Z" fill="#0c6a2f" stroke="#0c6a2f" stroke-width="1.51"/><path d="M1832,489L1889,585L1941,434Z" fill="#479752" stroke="#479752" stroke-width="1.51"/><path d="M1770,275L1937,290L1962,116Z" fill="#65a469" stroke="#65a469" stroke-width="1.51"/><path d="M1792,34L1962,116L1969,-87Z" fill="#76a979" stroke="#76a979" stroke-width="1.51"/><path d="M1774,-28L1792,34L1969,-87Z" fill="#7caf7f" stroke="#7caf7f" stroke-width="1.51"/><path d="M1807,-235L1969,-87L1986,-254Z" fill="#82ad85" stroke="#82ad85" stroke-width="1.51"/><path d="M1937,290L1783,338L1941,434Z" fill="#599f5e" stroke="#599f5e" stroke-width="1.51"/><path d="M1771,1045L1909,1141L1958,1004Z" fill="#0a7231" stroke="#0a7231" stroke-width="1.51"/><path d="M1792,34L1770,275L1962,116Z" fill="#6faa73" stroke="#6faa73" stroke-width="1.51"/><path d="M1807,-235L1774,-28L1969,-87Z" fill="#81b184" stroke="#81b184" stroke-width="1.51"/><path d="M1783,796L1895,847L1935,690Z" fill="#238842" stroke="#238842" stroke-width="1.51"/><path d="M1895,847L1771,1045L1958,1004Z" fill="#137a37" stroke="#137a37" stroke-width="1.51"/><path d="M1783,338L1832,489L1941,434Z" fill="#529e5a" stroke="#529e5a" stroke-width="1.51"/><path d="M1770,275L1783,338L1937,290Z" fill="#60a565" stroke="#60a565" stroke-width="1.51"/><path d="M1889,585L1729,700L1935,690Z" fill="#34914a" stroke="#34914a" stroke-width="1.51"/><path d="M1729,700L1783,796L1935,690Z" fill="#2b8e47" stroke="#2b8e47" stroke-width="1.51"/><path d="M1763,1120L1822,1290L1909,1141Z" fill="#026c2c" stroke="#026c2c" stroke-width="1.51"/><path d="M1771,1045L1763,1120L1909,1141Z" fill="#097331" stroke="#097331" stroke-width="1.51"/><path d="M1909,1141L1822,1290L1922,1238Z" fill="#006529" stroke="#006529" stroke-width="1.51"/><path d="M917,1279L634,1344L1288,1328Z" fill="#3f8749" stroke="#3f8749" stroke-width="1.51"/><path d="M1783,796L1771,1045L1895,847Z" fill="#1c823d" stroke="#1c823d" stroke-width="1.51"/><path d="M1668,851L1771,1045L1783,796Z" fill="#1f8640" stroke="#1f8640" stroke-width="1.51"/><path d="M1832,489L1729,700L1889,585Z" fill="#3e974f" stroke="#3e974f" stroke-width="1.51"/><path d="M1668,851L1676,1024L1771,1045Z" fill="#1b823d" stroke="#1b823d" stroke-width="1.51"/><path d="M1606,43L1770,275L1792,34Z" fill="#75b27a" stroke="#75b27a" stroke-width="1.51"/><path d="M1595,-81L1774,-28L1807,-235Z" fill="#85b78a" stroke="#85b78a" stroke-width="1.51"/><path d="M1763,1120L1603,1275L1822,1290Z" fill="#086c2e" stroke="#086c2e" stroke-width="1.51"/><path d="M1783,338L1630,509L1832,489Z" fill="#53a25d" stroke="#53a25d" stroke-width="1.51"/><path d="M1630,509L1729,700L1832,489Z" fill="#459d54" stroke="#459d54" stroke-width="1.51"/><path d="M1586,-240L1595,-81L1807,-235Z" fill="#8bbd90" stroke="#8bbd90" stroke-width="1.51"/><path d="M1630,509L1619,663L1729,700Z" fill="#409d54" stroke="#409d54" stroke-width="1.51"/><path d="M1606,43L1592,280L1770,275Z" fill="#71b176" stroke="#71b176" stroke-width="1.51"/><path d="M1596,387L1630,509L1783,338Z" fill="#5aa863" stroke="#5aa863" stroke-width="1.51"/><path d="M1774,-28L1606,43L1792,34Z" fill="#7db481" stroke="#7db481" stroke-width="1.51"/><path d="M1729,700L1668,851L1783,796Z" fill="#298f48" stroke="#298f48" stroke-width="1.51"/><path d="M1770,275L1592,280L1783,338Z" fill="#65ab6b" stroke="#65ab6b" stroke-width="1.51"/><path d="M1592,280L1596,387L1783,338Z" fill="#63ac6b" stroke="#63ac6b" stroke-width="1.51"/><path d="M1610,1087L1603,1275L1763,1120Z" fill="#0e7734" stroke="#0e7734" stroke-width="1.51"/><path d="M1676,1024L1763,1120L1771,1045Z" fill="#127a36" stroke="#127a36" stroke-width="1.51"/><path d="M1595,-81L1606,43L1774,-28Z" fill="#83b987" stroke="#83b987" stroke-width="1.51"/><path d="M1676,1024L1610,1087L1763,1120Z" fill="#147c38" stroke="#147c38" stroke-width="1.51"/><path d="M1192,-219L1355,-202L1477,-231Z" fill="#9acea0" stroke="#9acea0" stroke-width="1.51"/><path d="M1505,113L1592,280L1606,43Z" fill="#79b97f" stroke="#79b97f" stroke-width="1.51"/><path d="M1619,663L1668,851L1729,700Z" fill="#2f964d" stroke="#2f964d" stroke-width="1.51"/><path d="M1529,849L1507,1003L1668,851Z" fill="#278e47" stroke="#278e47" stroke-width="1.51"/><path d="M1619,663L1529,849L1668,851Z" fill="#2e954c" stroke="#2e954c" stroke-width="1.51"/><path d="M1668,851L1507,1003L1676,1024Z" fill="#208742" stroke="#208742" stroke-width="1.51"/><path d="M1507,1003L1610,1087L1676,1024Z" fill="#1c823e" stroke="#1c823e" stroke-width="1.51"/><path d="M1505,113L1482,221L1592,280Z" fill="#75b97c" stroke="#75b97c" stroke-width="1.51"/><path d="M1497,588L1619,663L1630,509Z" fill="#48a359" stroke="#48a359" stroke-width="1.51"/><path d="M1586,-240L1516,-116L1595,-81Z" fill="#8dc093" stroke="#8dc093" stroke-width="1.51"/><path d="M1592,280L1530,365L1596,387Z" fill="#65b16d" stroke="#65b16d" stroke-width="1.51"/><path d="M1433,1149L1532,1308L1603,1275Z" fill="#157536" stroke="#157536" stroke-width="1.51"/><path d="M1433,1149L1603,1275L1610,1087Z" fill="#157b38" stroke="#157b38" stroke-width="1.51"/><path d="M1481,635L1529,849L1619,663Z" fill="#389e53" stroke="#389e53" stroke-width="1.51"/><path d="M1596,387L1530,365L1630,509Z" fill="#5cac66" stroke="#5cac66" stroke-width="1.51"/><path d="M1530,365L1497,588L1630,509Z" fill="#56aa62" stroke="#56aa62" stroke-width="1.51"/><path d="M1595,-81L1516,-116L1606,43Z" fill="#88be8d" stroke="#88be8d" stroke-width="1.51"/><path d="M1497,588L1481,635L1619,663Z" fill="#44a359" stroke="#44a359" stroke-width="1.51"/><path d="M1516,-116L1505,113L1606,43Z" fill="#85be8a" stroke="#85be8a" stroke-width="1.51"/><path d="M1507,1003L1433,1149L1610,1087Z" fill="#1d843e" stroke="#1d843e" stroke-width="1.51"/><path d="M1477,-231L1516,-116L1586,-240Z" fill="#91c497" stroke="#91c497" stroke-width="1.51"/><path d="M1482,221L1530,365L1592,280Z" fill="#6cb574" stroke="#6cb574" stroke-width="1.51"/><path d="M1344,-18L1505,113L1516,-116Z" fill="#8ac38f" stroke="#8ac38f" stroke-width="1.51"/><path d="M1304,415L1291,565L1497,588Z" fill="#59b367" stroke="#59b367" stroke-width="1.51"/><path d="M1481,635L1339,733L1529,849Z" fill="#39a156" stroke="#39a156" stroke-width="1.51"/><path d="M1339,733L1343,867L1529,849Z" fill="#359e53" stroke="#359e53" stroke-width="1.51"/><path d="M1343,867L1507,1003L1529,849Z" fill="#2c944b" stroke="#2c944b" stroke-width="1.51"/><path d="M1304,415L1497,588L1530,365Z" fill="#5eb269" stroke="#5eb269" stroke-width="1.51"/><path d="M1482,221L1304,415L1530,365Z" fill="#6cb874" stroke="#6cb874" stroke-width="1.51"/><path d="M1433,1149L1288,1328L1532,1308Z" fill="#1b7839" stroke="#1b7839" stroke-width="1.51"/><path d="M1343,867L1318,936L1507,1003Z" fill="#2e954d" stroke="#2e954d" stroke-width="1.51"/><path d="M1477,-231L1355,-202L1516,-116Z" fill="#94c89a" stroke="#94c89a" stroke-width="1.51"/><path d="M1355,-202L1344,-18L1516,-116Z" fill="#93c998" stroke="#93c998" stroke-width="1.51"/><path d="M1308,198L1304,415L1482,221Z" fill="#75be7c" stroke="#75be7c" stroke-width="1.51"/><path d="M1344,-18L1296,100L1505,113Z" fill="#88c68d" stroke="#88c68d" stroke-width="1.51"/><path d="M1308,198L1482,221L1505,113Z" fill="#7cbf82" stroke="#7cbf82" stroke-width="1.51"/><path d="M1296,100L1308,198L1505,113Z" fill="#82c488" stroke="#82c488" stroke-width="1.51"/><path d="M1318,936L1433,1149L1507,1003Z" fill="#268d46" stroke="#268d46" stroke-width="1.51"/><path d="M1291,565L1481,635L1497,588Z" fill="#4eab5f" stroke="#4eab5f" stroke-width="1.51"/><path d="M1318,936L1280,1136L1433,1149Z" fill="#278d46" stroke="#278d46" stroke-width="1.51"/><path d="M1291,565L1339,733L1481,635Z" fill="#4aab5e" stroke="#4aab5e" stroke-width="1.51"/><path d="M1280,1136L1288,1328L1433,1149Z" fill="#21833f" stroke="#21833f" stroke-width="1.51"/><path d="M1091,1245L917,1279L1288,1328Z" fill="#338445" stroke="#338445" stroke-width="1.51"/><path d="M1280,1136L1197,1241L1288,1328Z" fill="#248341" stroke="#248341" stroke-width="1.51"/><path d="M1210,385L1304,415L1308,198Z" fill="#74c17b" stroke="#74c17b" stroke-width="1.51"/><path d="M1194,223L1210,385L1308,198Z" fill="#7cc682" stroke="#7cc682" stroke-width="1.51"/><path d="M1197,950L1280,1136L1318,936Z" fill="#2f964d" stroke="#2f964d" stroke-width="1.51"/><path d="M1291,565L1165,736L1339,733Z" fill="#4aae61" stroke="#4aae61" stroke-width="1.51"/><path d="M1339,733L1236,810L1343,867Z" fill="#3ba457" stroke="#3ba457" stroke-width="1.51"/><path d="M1213,-38L1344,-18L1355,-202Z" fill="#97ce9b" stroke="#97ce9b" stroke-width="1.51"/><path d="M1192,-219L1213,-38L1355,-202Z" fill="#9cd2a1" stroke="#9cd2a1" stroke-width="1.51"/><path d="M1213,-38L1296,100L1344,-18Z" fill="#90cc95" stroke="#90cc95" stroke-width="1.51"/><path d="M1236,810L1318,936L1343,867Z" fill="#369f54" stroke="#369f54" stroke-width="1.51"/><path d="M1165,736L1236,810L1339,733Z" fill="#42aa5c" stroke="#42aa5c" stroke-width="1.51"/><path d="M1213,-38L1172,72L1296,100Z" fill="#91ce95" stroke="#91ce95" stroke-width="1.51"/><path d="M1147,487L1291,565L1304,415Z" fill="#63ba6e" stroke="#63ba6e" stroke-width="1.51"/><path d="M1210,385L1147,487L1304,415Z" fill="#6dbf75" stroke="#6dbf75" stroke-width="1.51"/><path d="M1296,100L1194,223L1308,198Z" fill="#84c88a" stroke="#84c88a" stroke-width="1.51"/><path d="M1236,810L1197,950L1318,936Z" fill="#379f54" stroke="#379f54" stroke-width="1.51"/><path d="M1197,950L1132,1163L1280,1136Z" fill="#31944b" stroke="#31944b" stroke-width="1.51"/><path d="M1172,72L1194,223L1296,100Z" fill="#8bcc8f" stroke="#8bcc8f" stroke-width="1.51"/><path d="M1197,1241L1091,1245L1288,1328Z" fill="#2a8242" stroke="#2a8242" stroke-width="1.51"/><path d="M1147,487L1165,736L1291,565Z" fill="#5ab668" stroke="#5ab668" stroke-width="1.51"/><path d="M1132,1163L1197,1241L1280,1136Z" fill="#2c8c45" stroke="#2c8c45" stroke-width="1.51"/><path d="M1147,487L1058,521L1165,736Z" fill="#63ba6c" stroke="#63ba6c" stroke-width="1.51"/><path d="M1033,-233L1012,-21L1192,-219Z" fill="#a9d9a9" stroke="#a9d9a9" stroke-width="1.51"/><path d="M1172,72L1084,184L1194,223Z" fill="#8dce8f" stroke="#8dce8f" stroke-width="1.51"/><path d="M1165,736L984,884L1197,950Z" fill="#47a85c" stroke="#47a85c" stroke-width="1.51"/><path d="M1044,1013L1132,1163L1197,950Z" fill="#3b9a51" stroke="#3b9a51" stroke-width="1.51"/><path d="M1192,-219L1012,-21L1213,-38Z" fill="#a1d5a3" stroke="#a1d5a3" stroke-width="1.51"/><path d="M1165,736L1197,950L1236,810Z" fill="#41a75a" stroke="#41a75a" stroke-width="1.51"/><path d="M1044,1013L1034,1104L1132,1163Z" fill="#3d9850" stroke="#3d9850" stroke-width="1.51"/><path d="M1084,184L998,340L1194,223Z" fill="#89cd8a" stroke="#89cd8a" stroke-width="1.51"/><path d="M1194,223L998,340L1210,385Z" fill="#7fc882" stroke="#7fc882" stroke-width="1.51"/><path d="M1012,-21L1073,37L1213,-38Z" fill="#9fd59f" stroke="#9fd59f" stroke-width="1.51"/><path d="M1073,37L1172,72L1213,-38Z" fill="#98d29a" stroke="#98d29a" stroke-width="1.51"/><path d="M998,340L1147,487L1210,385Z" fill="#77c57b" stroke="#77c57b" stroke-width="1.51"/><path d="M1058,521L985,718L1165,736Z" fill="#5eb96a" stroke="#5eb96a" stroke-width="1.51"/><path d="M1132,1163L1091,1245L1197,1241Z" fill="#318a46" stroke="#318a46" stroke-width="1.51"/><path d="M984,884L1044,1013L1197,950Z" fill="#45a358" stroke="#45a358" stroke-width="1.51"/><path d="M998,340L1058,521L1147,487Z" fill="#76c479" stroke="#76c479" stroke-width="1.51"/><path d="M985,718L984,884L1165,736Z" fill="#53b164" stroke="#53b164" stroke-width="1.51"/><path d="M1073,37L1084,184L1172,72Z" fill="#96d296" stroke="#96d296" stroke-width="1.51"/><path d="M1034,1104L1091,1245L1132,1163Z" fill="#38924a" stroke="#38924a" stroke-width="1.51"/><path d="M875,545L985,718L1058,521Z" fill="#6dc072" stroke="#6dc072" stroke-width="1.51"/><path d="M893,270L998,340L1084,184Z" fill="#8fd08d" stroke="#8fd08d" stroke-width="1.51"/><path d="M1073,37L928,118L1084,184Z" fill="#9ad499" stroke="#9ad499" stroke-width="1.51"/><path d="M1034,1104L931,1116L1091,1245Z" fill="#3e964e" stroke="#3e964e" stroke-width="1.51"/><path d="M931,1116L917,1279L1091,1245Z" fill="#40914c" stroke="#40914c" stroke-width="1.51"/><path d="M928,118L893,270L1084,184Z" fill="#98d495" stroke="#98d495" stroke-width="1.51"/><path d="M864,-27L1012,-21L1033,-233Z" fill="#aeddab" stroke="#aeddab" stroke-width="1.51"/><path d="M998,340L875,545L1058,521Z" fill="#7bc77c" stroke="#7bc77c" stroke-width="1.51"/><path d="M1012,-21L928,118L1073,37Z" fill="#a1d79f" stroke="#a1d79f" stroke-width="1.51"/><path d="M788,1260L634,1344L917,1279Z" fill="#4d8f54" stroke="#4d8f54" stroke-width="1.51"/><path d="M856,-246L864,-27L1033,-233Z" fill="#b5e0b1" stroke="#b5e0b1" stroke-width="1.51"/><path d="M984,884L897,938L1044,1013Z" fill="#4ea75d" stroke="#4ea75d" stroke-width="1.51"/><path d="M875,545L921,720L985,718Z" fill="#69bd70" stroke="#69bd70" stroke-width="1.51"/><path d="M874,342L875,545L998,340Z" fill="#86cc84" stroke="#86cc84" stroke-width="1.51"/><path d="M931,1116L1034,1104L1044,1013Z" fill="#449c53" stroke="#449c53" stroke-width="1.51"/><path d="M897,938L931,1116L1044,1013Z" fill="#4ba258" stroke="#4ba258" stroke-width="1.51"/><path d="M921,720L984,884L985,718Z" fill="#5ab568" stroke="#5ab568" stroke-width="1.51"/><path d="M921,720L845,857L984,884Z" fill="#5bb367" stroke="#5bb367" stroke-width="1.51"/><path d="M864,-27L928,118L1012,-21Z" fill="#a8dba4" stroke="#a8dba4" stroke-width="1.51"/><path d="M893,270L874,342L998,340Z" fill="#8fd18c" stroke="#8fd18c" stroke-width="1.51"/><path d="M845,857L897,938L984,884Z" fill="#57ae64" stroke="#57ae64" stroke-width="1.51"/><path d="M856,-246L721,-105L864,-27Z" fill="#bae3b6" stroke="#bae3b6" stroke-width="1.51"/><path d="M778,949L779,1119L897,938Z" fill="#58a862" stroke="#58a862" stroke-width="1.51"/><path d="M875,545L754,652L921,720Z" fill="#71c276" stroke="#71c276" stroke-width="1.51"/><path d="M864,-27L781,73L928,118Z" fill="#acdca7" stroke="#acdca7" stroke-width="1.51"/><path d="M791,271L893,270L928,118Z" fill="#9cd698" stroke="#9cd698" stroke-width="1.51"/><path d="M781,73L791,271L928,118Z" fill="#a5daa0" stroke="#a5daa0" stroke-width="1.51"/><path d="M897,938L779,1119L931,1116Z" fill="#51a25c" stroke="#51a25c" stroke-width="1.51"/><path d="M788,1260L917,1279L931,1116Z" fill="#489452" stroke="#489452" stroke-width="1.51"/><path d="M779,1119L788,1260L931,1116Z" fill="#4e9b57" stroke="#4e9b57" stroke-width="1.51"/><path d="M874,342L700,496L875,545Z" fill="#88cd86" stroke="#88cd86" stroke-width="1.51"/><path d="M738,342L700,496L874,342Z" fill="#93d28e" stroke="#93d28e" stroke-width="1.51"/><path d="M787,851L845,857L921,720Z" fill="#61b66c" stroke="#61b66c" stroke-width="1.51"/><path d="M754,652L787,851L921,720Z" fill="#68bd72" stroke="#68bd72" stroke-width="1.51"/><path d="M791,271L874,342L893,270Z" fill="#96d492" stroke="#96d492" stroke-width="1.51"/><path d="M845,857L778,949L897,938Z" fill="#5bae66" stroke="#5bae66" stroke-width="1.51"/><path d="M82,1329L40,1339L400,1342Z" fill="#709973" stroke="#709973" stroke-width="1.51"/><path d="M700,496L754,652L875,545Z" fill="#7fc980" stroke="#7fc980" stroke-width="1.51"/><path d="M791,271L738,342L874,342Z" fill="#98d594" stroke="#98d594" stroke-width="1.51"/><path d="M394,-247L634,-232L696,-259Z" fill="#d0edcb" stroke="#d0edcb" stroke-width="1.51"/><path d="M787,851L778,949L845,857Z" fill="#60b26a" stroke="#60b26a" stroke-width="1.51"/><path d="M696,-259L721,-105L856,-246Z" fill="#c2e6bd" stroke="#c2e6bd" stroke-width="1.51"/><path d="M721,-105L781,73L864,-27Z" fill="#b6e1b1" stroke="#b6e1b1" stroke-width="1.51"/><path d="M640,409L700,496L738,342Z" fill="#96d491" stroke="#96d491" stroke-width="1.51"/><path d="M778,949L634,956L779,1119Z" fill="#5eab67" stroke="#5eab67" stroke-width="1.51"/><path d="M721,-105L623,-12L781,73Z" fill="#bbe4b5" stroke="#bbe4b5" stroke-width="1.51"/><path d="M754,652L596,789L787,851Z" fill="#6fbf77" stroke="#6fbf77" stroke-width="1.51"/><path d="M634,956L778,949L787,851Z" fill="#63b26d" stroke="#63b26d" stroke-width="1.51"/><path d="M779,1119L560,1153L788,1260Z" fill="#579e5e" stroke="#579e5e" stroke-width="1.51"/><path d="M560,1153L634,1344L788,1260Z" fill="#58975d" stroke="#58975d" stroke-width="1.51"/><path d="M622,266L738,342L791,271Z" fill="#a1d99b" stroke="#a1d99b" stroke-width="1.51"/><path d="M781,73L631,117L791,271Z" fill="#acdea6" stroke="#acdea6" stroke-width="1.51"/><path d="M631,117L622,266L791,271Z" fill="#aadda4" stroke="#aadda4" stroke-width="1.51"/><path d="M596,789L634,956L787,851Z" fill="#6bb873" stroke="#6bb873" stroke-width="1.51"/><path d="M634,956L560,1153L779,1119Z" fill="#60a867" stroke="#60a867" stroke-width="1.51"/><path d="M623,-12L631,117L781,73Z" fill="#b8e3b2" stroke="#b8e3b2" stroke-width="1.51"/><path d="M564,488L562,721L700,496Z" fill="#8ccf8a" stroke="#8ccf8a" stroke-width="1.51"/><path d="M696,-259L634,-232L721,-105Z" fill="#c7e8c2" stroke="#c7e8c2" stroke-width="1.51"/><path d="M700,496L562,721L754,652Z" fill="#81c983" stroke="#81c983" stroke-width="1.51"/><path d="M562,721L596,789L754,652Z" fill="#79c47f" stroke="#79c47f" stroke-width="1.51"/><path d="M622,266L640,409L738,342Z" fill="#a0d89a" stroke="#a0d89a" stroke-width="1.51"/><path d="M634,-232L623,-12L721,-105Z" fill="#c5e8bf" stroke="#c5e8bf" stroke-width="1.51"/><path d="M640,409L564,488L700,496Z" fill="#95d390" stroke="#95d390" stroke-width="1.51"/><path d="M486,510L562,721L564,488Z" fill="#8fd08e" stroke="#8fd08e" stroke-width="1.51"/><path d="M442,213L384,406L622,266Z" fill="#b0e0a9" stroke="#b0e0a9" stroke-width="1.51"/><path d="M623,-12L454,-53L631,117Z" fill="#c2e7bb" stroke="#c2e7bb" stroke-width="1.51"/><path d="M454,-53L383,97L631,117Z" fill="#c5e8bd" stroke="#c5e8bd" stroke-width="1.51"/><path d="M442,213L622,266L631,117Z" fill="#b4e1ad" stroke="#b4e1ad" stroke-width="1.51"/><path d="M560,1153L400,1342L634,1344Z" fill="#5f9863" stroke="#5f9863" stroke-width="1.51"/><path d="M467,1028L560,1153L634,956Z" fill="#69ad6f" stroke="#69ad6f" stroke-width="1.51"/><path d="M596,789L463,784L634,956Z" fill="#74bd7c" stroke="#74bd7c" stroke-width="1.51"/><path d="M463,784L467,1028L634,956Z" fill="#73b879" stroke="#73b879" stroke-width="1.51"/><path d="M454,-53L623,-12L634,-232Z" fill="#caeac4" stroke="#caeac4" stroke-width="1.51"/><path d="M394,-247L454,-53L634,-232Z" fill="#d2edcc" stroke="#d2edcc" stroke-width="1.51"/><path d="M622,266L384,406L640,409Z" fill="#a5db9f" stroke="#a5db9f" stroke-width="1.51"/><path d="M384,406L564,488L640,409Z" fill="#9fd89a" stroke="#9fd89a" stroke-width="1.51"/><path d="M486,510L414,648L562,721Z" fill="#8dce8d" stroke="#8dce8d" stroke-width="1.51"/><path d="M383,97L442,213L631,117Z" fill="#bee5b6" stroke="#bee5b6" stroke-width="1.51"/><path d="M384,406L486,510L564,488Z" fill="#9ed79a" stroke="#9ed79a" stroke-width="1.51"/><path d="M562,721L463,784L596,789Z" fill="#7bc482" stroke="#7bc482" stroke-width="1.51"/><path d="M467,1028L410,1124L560,1153Z" fill="#6bab70" stroke="#6bab70" stroke-width="1.51"/><path d="M410,1124L400,1342L560,1153Z" fill="#67a26b" stroke="#67a26b" stroke-width="1.51"/><path d="M414,648L463,784L562,721Z" fill="#83c988" stroke="#83c988" stroke-width="1.51"/><path d="M37,-259L110,-213L394,-247Z" fill="#e6f5e1" stroke="#e6f5e1" stroke-width="1.51"/><path d="M316,1281L400,1342L410,1124Z" fill="#6a9f6d" stroke="#6a9f6d" stroke-width="1.51"/><path d="M321,1158L316,1281L410,1124Z" fill="#6fa672" stroke="#6fa672" stroke-width="1.51"/><path d="M394,-247L323,-180L454,-53Z" fill="#d8f0d2" stroke="#d8f0d2" stroke-width="1.51"/><path d="M312,816L231,996L467,1028Z" fill="#7cbb82" stroke="#7cbb82" stroke-width="1.51"/><path d="M463,784L312,816L467,1028Z" fill="#7cbe82" stroke="#7cbe82" stroke-width="1.51"/><path d="M296,571L414,648L486,510Z" fill="#98d496" stroke="#98d496" stroke-width="1.51"/><path d="M384,406L296,571L486,510Z" fill="#a1d89d" stroke="#a1d89d" stroke-width="1.51"/><path d="M314,386L384,406L442,213Z" fill="#b3e1ac" stroke="#b3e1ac" stroke-width="1.51"/><path d="M284,213L314,386L442,213Z" fill="#bbe4b3" stroke="#bbe4b3" stroke-width="1.51"/><path d="M414,648L312,695L463,784Z" fill="#8acc8d" stroke="#8acc8d" stroke-width="1.51"/><path d="M312,695L312,816L463,784Z" fill="#87c98d" stroke="#87c98d" stroke-width="1.51"/><path d="M231,996L410,1124L467,1028Z" fill="#75b27a" stroke="#75b27a" stroke-width="1.51"/><path d="M245,-43L267,64L383,97Z" fill="#d1edca" stroke="#d1edca" stroke-width="1.51"/><path d="M245,-43L383,97L454,-53Z" fill="#d1edca" stroke="#d1edca" stroke-width="1.51"/><path d="M323,-180L245,-43L454,-53Z" fill="#d8f0d1" stroke="#d8f0d1" stroke-width="1.51"/><path d="M316,1281L82,1329L400,1342Z" fill="#6c9a6f" stroke="#6c9a6f" stroke-width="1.51"/><path d="M383,97L284,213L442,213Z" fill="#c2e7bb" stroke="#c2e7bb" stroke-width="1.51"/><path d="M314,386L296,571L384,406Z" fill="#a9dca4" stroke="#a9dca4" stroke-width="1.51"/><path d="M110,-213L323,-180L394,-247Z" fill="#e0f3db" stroke="#e0f3db" stroke-width="1.51"/><path d="M231,996L321,1158L410,1124Z" fill="#75b079" stroke="#75b079" stroke-width="1.51"/><path d="M296,571L312,695L414,648Z" fill="#95d195" stroke="#95d195" stroke-width="1.51"/><path d="M267,64L284,213L383,97Z" fill="#caeac2" stroke="#caeac2" stroke-width="1.51"/><path d="M267,64L171,105L284,213Z" fill="#cdecc6" stroke="#cdecc6" stroke-width="1.51"/><path d="M168,413L127,533L296,571Z" fill="#aadca6" stroke="#aadca6" stroke-width="1.51"/><path d="M81,857L231,996L312,816Z" fill="#87c28c" stroke="#87c28c" stroke-width="1.51"/><path d="M88,714L312,816L312,695Z" fill="#8fcd94" stroke="#8fcd94" stroke-width="1.51"/><path d="M284,213L183,276L314,386Z" fill="#bde5b6" stroke="#bde5b6" stroke-width="1.51"/><path d="M168,413L296,571L314,386Z" fill="#addda8" stroke="#addda8" stroke-width="1.51"/><path d="M165,1103L316,1281L321,1158Z" fill="#73a976" stroke="#73a976" stroke-width="1.51"/><path d="M231,996L165,1103L321,1158Z" fill="#7ab27e" stroke="#7ab27e" stroke-width="1.51"/><path d="M110,-213L245,-43L323,-180Z" fill="#e0f3da" stroke="#e0f3da" stroke-width="1.51"/><path d="M296,571L88,714L312,695Z" fill="#98d29a" stroke="#98d29a" stroke-width="1.51"/><path d="M183,276L168,413L314,386Z" fill="#b9e3b3" stroke="#b9e3b3" stroke-width="1.51"/><path d="M165,1103L82,1329L316,1281Z" fill="#74a477" stroke="#74a477" stroke-width="1.51"/><path d="M127,533L88,714L296,571Z" fill="#a1d7a0" stroke="#a1d7a0" stroke-width="1.51"/><path d="M88,714L81,857L312,816Z" fill="#8fca94" stroke="#8fca94" stroke-width="1.51"/><path d="M171,105L183,276L284,213Z" fill="#c8eac1" stroke="#c8eac1" stroke-width="1.51"/><path d="M110,-213L79,-67L245,-43Z" fill="#e3f4dd" stroke="#e3f4dd" stroke-width="1.51"/><path d="M245,-43L171,105L267,64Z" fill="#d4eecd" stroke="#d4eecd" stroke-width="1.51"/><path d="M81,857L80,1018L231,996Z" fill="#87be8c" stroke="#87be8c" stroke-width="1.51"/><path d="M79,-67L171,105L245,-43Z" fill="#dbf1d4" stroke="#dbf1d4" stroke-width="1.51"/><path d="M80,1018L165,1103L231,996Z" fill="#80b785" stroke="#80b785" stroke-width="1.51"/><path d="M-5,1101L82,1329L165,1103Z" fill="#7dad80" stroke="#7dad80" stroke-width="1.51"/><path d="M79,-67L-3,-15L171,105Z" fill="#def2d8" stroke="#def2d8" stroke-width="1.51"/><path d="M-3,-15L-23,62L171,105Z" fill="#dcf2d6" stroke="#dcf2d6" stroke-width="1.51"/><path d="M31,438L168,413L183,276Z" fill="#bbe4b6" stroke="#bbe4b6" stroke-width="1.51"/><path d="M3,193L31,438L183,276Z" fill="#c6e8c0" stroke="#c6e8c0" stroke-width="1.51"/><path d="M171,105L3,193L183,276Z" fill="#cdecc7" stroke="#cdecc7" stroke-width="1.51"/><path d="M31,438L127,533L168,413Z" fill="#b4e0af" stroke="#b4e0af" stroke-width="1.51"/><path d="M-23,62L3,193L171,105Z" fill="#d7efd1" stroke="#d7efd1" stroke-width="1.51"/><path d="M80,1018L-5,1101L165,1103Z" fill="#83b687" stroke="#83b687" stroke-width="1.51"/><path d="M26,850L80,1018L81,857Z" fill="#8ec393" stroke="#8ec393" stroke-width="1.51"/><path d="M-5,1101L40,1339L82,1329Z" fill="#7aa57d" stroke="#7aa57d" stroke-width="1.51"/><path d="M26,850L81,857L88,714Z" fill="#94cb99" stroke="#94cb99" stroke-width="1.51"/><path d="M37,-259L79,-67L110,-213Z" fill="#e9f6e4" stroke="#e9f6e4" stroke-width="1.51"/><path d="M31,438L-19,489L127,533Z" fill="#b4dfb0" stroke="#b4dfb0" stroke-width="1.51"/><path d="M-66,665L88,714L127,533Z" fill="#a4d7a4" stroke="#a4d7a4" stroke-width="1.51"/><path d="M-19,489L-66,665L127,533Z" fill="#addcaa" stroke="#addcaa" stroke-width="1.51"/><path d="M-5,1101L-123,1166L40,1339Z" fill="#7fac82" stroke="#7fac82" stroke-width="1.51"/><path d="M37,-259L-112,-201L79,-67Z" fill="#ebf7e7" stroke="#ebf7e7" stroke-width="1.51"/><path d="M26,850L-53,995L80,1018Z" fill="#8cc091" stroke="#8cc091" stroke-width="1.51"/><path d="M-127,232L-112,417L3,193Z" fill="#ccebc7" stroke="#ccebc7" stroke-width="1.51"/><path d="M3,193L-112,417L31,438Z" fill="#c4e7bf" stroke="#c4e7bf" stroke-width="1.51"/><path d="M-112,-201L-3,-15L79,-67Z" fill="#e8f7e3" stroke="#e8f7e3" stroke-width="1.51"/><path d="M-66,665L26,850L88,714Z" fill="#9ad19e" stroke="#9ad19e" stroke-width="1.51"/><path d="M-53,995L-5,1101L80,1018Z" fill="#87b98c" stroke="#87b98c" stroke-width="1.51"/><path d="M-123,1166L-157,1251L40,1339Z" fill="#7ea781" stroke="#7ea781" stroke-width="1.51"/><path d="M-66,665L-211,726L26,850Z" fill="#9dd2a2" stroke="#9dd2a2" stroke-width="1.51"/><path d="M-211,726L-210,880L26,850Z" fill="#9acd9e" stroke="#9acd9e" stroke-width="1.51"/><path d="M-112,417L-19,489L31,438Z" fill="#bae2b6" stroke="#bae2b6" stroke-width="1.51"/><path d="M-210,880L-53,995L26,850Z" fill="#92c597" stroke="#92c597" stroke-width="1.51"/><path d="M-180,521L-66,665L-19,489Z" fill="#b1ddae" stroke="#b1ddae" stroke-width="1.51"/><path d="M-112,-201L-205,-68L-3,-15Z" fill="#ebf8e7" stroke="#ebf8e7" stroke-width="1.51"/><path d="M-23,62L-125,94L3,193Z" fill="#dbf1d5" stroke="#dbf1d5" stroke-width="1.51"/><path d="M-125,94L-127,232L3,193Z" fill="#d7efd1" stroke="#d7efd1" stroke-width="1.51"/><path d="M-53,995L-149,1033L-5,1101Z" fill="#8aba8e" stroke="#8aba8e" stroke-width="1.51"/><path d="M-125,94L-23,62L-3,-15Z" fill="#e0f3da" stroke="#e0f3da" stroke-width="1.51"/><path d="M-205,-68L-125,94L-3,-15Z" fill="#e4f5df" stroke="#e4f5df" stroke-width="1.51"/><path d="M-149,1033L-123,1166L-5,1101Z" fill="#87b68b" stroke="#87b68b" stroke-width="1.51"/><path d="M-112,417L-180,521L-19,489Z" fill="#bae2b5" stroke="#bae2b5" stroke-width="1.51"/><path d="M-210,880L-149,1033L-53,995Z" fill="#90c195" stroke="#90c195" stroke-width="1.51"/><path d="M-180,521L-211,726L-66,665Z" fill="#aad9ab" stroke="#aad9ab" stroke-width="1.51"/><path d="M-127,232L-180,521L-112,417Z" fill="#c4e7bf" stroke="#c4e7bf" stroke-width="1.51"/><path d="M-205,-68L-127,232L-125,94Z" fill="#e0f3da" stroke="#e0f3da" stroke-width="1.51"/><path d="M-149,1033L-157,1251L-123,1166Z" fill="#85b389" stroke="#85b389" stroke-width="1.51"/><path d="M-205,-68L-180,521L-127,232Z" fill="#d4eecf" stroke="#d4eecf" stroke-width="1.51"/><path d="M-210,880L-157,1251L-149,1033Z" fill="#8cba90" stroke="#8cba90" stroke-width="1.51"/><path d="M-205,-68L-211,726L-180,521Z" fill="#c5e7c0" stroke="#c5e7c0" stroke-width="1.51"/></svg>